<svg width="24" height="24" viewBox="0 0 24 24" fill="none" xmlns="http://www.w3.org/2000/svg">
<path d="M9.9175 12.2408L17.6654 6.85064L18.8448 8.14655L12.7508 15.354L9.9175 12.2408ZM7.58739 12.652L12.1227 17.6353C12.2166 17.7283 12.3292 17.8003 12.453 17.8466C12.5768 17.8929 12.709 17.9123 12.8408 17.9038C12.9727 17.8952 13.1013 17.8587 13.218 17.7967C13.3347 17.7348 13.437 17.6488 13.518 17.5444L20.9694 8.73139C21.1179 8.56827 21.2019 8.35672 21.2058 8.1362C21.2097 7.91569 21.1333 7.70128 20.9907 7.53299L18.4777 4.77183C18.3236 4.6141 18.1173 4.51786 17.8974 4.50105C17.6775 4.48425 17.459 4.54804 17.2826 4.68051L7.80898 11.2713C7.69742 11.3422 7.60217 11.4359 7.52952 11.5463C7.45687 11.6567 7.40847 11.7813 7.38753 11.9118C7.36658 12.0423 7.37357 12.1757 7.40802 12.3033C7.44247 12.4309 7.50361 12.5498 7.58739 12.652V12.652ZM2.79388 18.5277L8.41124 19.5L9.89037 18.1538L6.86148 14.8258L2.79388 18.5277Z" fill="black"/>
</svg>
